<svg 
    id="wave" 
    style="transform:rotate(0deg); transition: 0.3s" 
    viewBox="0 0 1440 490" version="1.1" 
    xmlns="http://www.w3.org/2000/svg">
    <defs><linearGradient id="sw-gradient-0" x1="0" x2="0" y1="1" y2="0">
    <stop stop-color="rgba(105, 112, 204, 1)" offset="0%"></stop>
    <stop stop-color="rgba(96, 182, 240, 1)" offset="100%"></stop>
    </linearGradient></defs>
    <path style="transform:translate(0, 0px); opacity:1" fill="url(#sw-gradient-0)" d="M0,49L120,73.5C240,98,480,147,720,212.3C960,278,1200,359,1440,326.7C1680,294,1920,147,2160,147C2400,147,2640,294,2880,367.5C3120,441,3360,441,3600,416.5C3840,392,4080,343,4320,310.3C4560,278,4800,261,5040,269.5C5280,278,5520,310,5760,318.5C6000,327,6240,310,6480,294C6720,278,6960,261,7200,277.7C7440,294,7680,343,7920,302.2C8160,261,8400,131,8640,73.5C8880,16,9120,33,9360,106.2C9600,180,9840,310,10080,367.5C10320,425,10560,408,10800,375.7C11040,343,11280,294,11520,253.2C11760,212,12000,180,12240,155.2C12480,131,12720,114,12960,130.7C13200,147,13440,196,13680,204.2C13920,212,14160,180,14400,147C14640,114,14880,82,15120,114.3C15360,147,15600,245,15840,261.3C16080,278,16320,212,16560,179.7C16800,147,17040,147,17160,147L17280,147L17280,490L17160,490C17040,490,16800,490,16560,490C16320,490,16080,490,15840,490C15600,490,15360,490,15120,490C14880,490,14640,490,14400,490C14160,490,13920,490,13680,490C13440,490,13200,490,12960,490C12720,490,12480,490,12240,490C12000,490,11760,490,11520,490C11280,490,11040,490,10800,490C10560,490,10320,490,10080,490C9840,490,9600,490,9360,490C9120,490,8880,490,8640,490C8400,490,8160,490,7920,490C7680,490,7440,490,7200,490C6960,490,6720,490,6480,490C6240,490,6000,490,5760,490C5520,490,5280,490,5040,490C4800,490,4560,490,4320,490C4080,490,3840,490,3600,490C3360,490,3120,490,2880,490C2640,490,2400,490,2160,490C1920,490,1680,490,1440,490C1200,490,960,490,720,490C480,490,240,490,120,490L0,490Z"></path></svg>